<svg xmlns="http://www.w3.org/2000/svg" xmlns:xlink="http://www.w3.org/1999/xlink" version="1.1" id="Layer_1" x="0px" y="0px" width="97.477px" height="90.832px" viewBox="4.87385 -9.0832 97.477 122.6232" enable-background="new 0 0 97.477 90.832" xml:space="preserve">
<g>
	<path fill="#FFFFFF" d="M83.078,24.37c5.497,0,9.97-4.474,9.97-9.969c0-5.499-4.473-9.971-9.97-9.971   c-5.498,0-9.97,4.472-9.97,9.971C73.108,19.896,77.58,24.37,83.078,24.37z M83.078,8.862c3.055,0,5.538,2.483,5.538,5.54   c0,3.055-2.483,5.538-5.538,5.538c-3.056,0-5.539-2.483-5.539-5.538C77.539,11.345,80.022,8.862,83.078,8.862z"/>
	<path fill="#FFFFFF" d="M90.832,26.586H79.756L68.677,13.124V2.215c0-1.224-0.99-2.215-2.215-2.215H4.431   C3.206,0,2.215,0.991,2.215,2.215v39.878c0,1.225,0.991,2.215,2.215,2.215h62.032c1.225,0,2.215-0.991,2.215-2.215v-8.053   l2.215,2.691v23.084h2.216h2.216h17.724h2.214h2.216V33.232C97.477,29.567,94.496,26.586,90.832,26.586z M64.247,39.878H6.646   V4.431h57.601v4.851c-0.705-0.251-1.445-0.419-2.216-0.419c-1.536,0-3.035,0.538-4.221,1.514c-1.372,1.129-2.222,2.724-2.394,4.492   c-0.172,1.766,0.355,3.497,1.484,4.868l7.346,8.922V39.878z M75.324,55.387V42.002v-6.554v-0.307l-6.646-8.075v-0.48h-0.398   l-7.957-9.667c-0.779-0.948-0.643-2.341,0.303-3.12c0.413-0.342,0.911-0.507,1.406-0.507c0.641,0,1.275,0.278,1.711,0.81   l13.797,16.763v0.152h0.126h5.739h7.428c1.223,0,2.216,0.99,2.216,2.215v22.155H75.324z"/>
	<path fill="#FFFFFF" d="M17.723,56.493c0-4.274-3.479-7.753-7.754-7.753c-4.275,0-7.753,3.479-7.753,7.753   c0,4.276,3.479,7.755,7.753,7.755C14.244,64.248,17.723,60.77,17.723,56.493z M6.646,56.493c0-1.834,1.491-3.322,3.323-3.322   c1.833,0,3.323,1.488,3.323,3.322c0,1.831-1.49,3.323-3.323,3.323C8.137,59.816,6.646,58.324,6.646,56.493z"/>
	<path fill="#FFFFFF" d="M34.339,64.248c4.274,0,7.753-3.479,7.753-7.755c0-4.274-3.479-7.753-7.753-7.753   c-4.275,0-7.754,3.479-7.754,7.753C26.584,60.77,30.063,64.248,34.339,64.248z M34.339,53.171c1.832,0,3.323,1.488,3.323,3.322   c0,1.831-1.491,3.323-3.323,3.323c-1.833,0-3.324-1.492-3.324-3.323C31.015,54.659,32.506,53.171,34.339,53.171z"/>
	<path fill="#FFFFFF" d="M66.462,56.493c0-4.274-3.479-7.753-7.755-7.753c-4.274,0-7.754,3.479-7.754,7.753   c0,4.276,3.479,7.755,7.754,7.755C62.983,64.248,66.462,60.77,66.462,56.493z M55.385,56.493c0-1.834,1.49-3.322,3.322-3.322   c1.833,0,3.323,1.488,3.323,3.322c0,1.831-1.49,3.323-3.323,3.323C56.875,59.816,55.385,58.324,55.385,56.493z"/>
	<path fill="#FFFFFF" d="M13.292,66.463H6.646C2.981,66.463,0,69.444,0,73.108v17.724h2.215h2.215h11.077h2.215h2.216V73.108   C19.938,69.444,16.957,66.463,13.292,66.463z M15.508,86.401H4.431V73.108c0-1.223,0.993-2.214,2.215-2.214h6.646   c1.223,0,2.216,0.991,2.216,2.214V86.401z"/>
	<path fill="#FFFFFF" d="M62.031,66.463h-6.646c-3.665,0-6.646,2.981-6.646,6.646v17.724h2.215h2.216h11.077h2.216h2.215V73.108   C68.677,69.444,65.696,66.463,62.031,66.463z M64.247,86.401H53.169V73.108c0-1.223,0.993-2.214,2.216-2.214h6.646   c1.223,0,2.216,0.991,2.216,2.214V86.401z"/>
	<path fill="#FFFFFF" d="M46.465,88.331c-0.013-0.1,0.008-0.199-0.02-0.299l-4.669-17.074c-0.039-0.138-0.125-0.246-0.185-0.372   c-0.059-0.138-0.139-0.263-0.204-0.397c-0.004-0.004-0.004-0.013-0.009-0.018c-1.088-2.189-3.325-3.708-5.932-3.708h-2.215   c-2.462,0-4.593,1.363-5.74,3.357c-0.078,0.096-0.117,0.217-0.18,0.325c-0.074,0.151-0.16,0.29-0.225,0.44   c-0.002,0.014-0.011,0.022-0.016,0.036l-0.052,0.189c-0.136,0.367-0.248,0.744-0.317,1.138l-4.468,16.075   c-0.023,0.083-0.004,0.164-0.017,0.246c-0.015,0.104-0.063,0.199-0.063,0.308c0,0.052,0.026,0.096,0.031,0.146   c0.008,0.187,0.052,0.355,0.104,0.528c0.03,0.091,0.05,0.177,0.088,0.26c0.091,0.208,0.219,0.381,0.368,0.549   c0.032,0.036,0.056,0.074,0.09,0.109c0.177,0.173,0.383,0.307,0.615,0.415c0.03,0.013,0.054,0.03,0.083,0.044   c0.086,0.034,0.153,0.095,0.244,0.121c0.199,0.056,0.398,0.081,0.595,0.081c0.071,0,0.138-0.029,0.208-0.034l19.724,0.034   c0.002,0,0.002,0,0.004,0s0.002,0,0.004,0c0.192-0.004,0.387-0.025,0.579-0.078c0.05-0.013,0.085-0.051,0.133-0.068   c0.146-0.048,0.272-0.121,0.403-0.199c0.119-0.073,0.238-0.139,0.339-0.229c0.106-0.097,0.187-0.204,0.272-0.316   c0.087-0.116,0.174-0.221,0.236-0.352c0.062-0.12,0.091-0.25,0.13-0.384c0.041-0.147,0.08-0.29,0.091-0.446   c0.001-0.047,0.028-0.091,0.028-0.139C46.523,88.518,46.48,88.431,46.465,88.331z M33.231,70.895h2.215   c1.223,0,2.216,0.991,2.216,2.214h0.108l3.635,13.289l-14.111-0.026l3.687-13.263h0.034c0-0.163,0.061-0.311,0.096-0.467   l0.13-0.472C31.595,71.422,32.346,70.895,33.231,70.895z"/>
</g>
</svg>